<svg width="256" height="256" viewBox="0 0 512 512" fill="none" xmlns="http://www.w3.org/2000/svg">
  <defs>
    <filter id="shadow" x="-15%" y="-15%" width="130%" height="130%">
      <feGaussianBlur in="SourceAlpha" stdDeviation="4"/>
      <feOffset dx="2" dy="4" result="offsetblur"/>
      <feFlood flood-color="#000000" flood-opacity="0.35"/>
      <feComposite in2="offsetblur" operator="in" result="shadow"/>
      <feMerge>
        <feMergeNode in="shadow"/>
        <feMergeNode in="SourceGraphic"/>
      </feMerge>
    </filter>
  </defs>

  <g transform="translate(-80, -75) scale(1.4)" filter="url(#shadow)">
    <path d="M213.2,385.4c-81.2-13.6-137.1-89.8-125-171.8c10.7-72.2,71.2-127.3,144-131.2c84.2-4.5,156.4,60.8,161.1,145c3.2,57.1-23.7,110.1-66.7,141.4c-15.3,11.1-34.8,19.3-51.2,12.5c-15.6-6.5-19.1-26.6-11.4-39.8c15.1-25.9,50.7-27.1,73.5-47.8c34.3-31.1,48.2-82.7,33-126.7c-18.7-54-78.5-87.1-133.1-73.8c-55.7,13.6-94,68-85.1,124.9c7,44.7,42.2,81.1,87,88.2c16.1,2.5,23.3,23.1,13.4,36.2C241.6,411.3,222.8,387,213.2,385.4z" fill="#7f2457"/>
    <g transform="translate(325, 230) rotate(-15)">
      <path d="M0,0 L35,15 L0,30 L5,15 Z" fill="#E0E0E0" stroke="#333333" stroke-width="2" stroke-linejoin="round"/>
      <line x1="0" y1="15" x2="20" y2="15" stroke="#333333" stroke-width="1.5"/>
      <circle cx="12" cy="15" r="2" fill="#333333"/>
    </g>
  </g>
</svg>
